<?xml version="1.0" encoding="UTF-8"?>
<svg width="113px" height="33px" viewBox="0 0 113 33" preserveAspectRatio="XMidYMid meet" version="1.1" xmlns="http://www.w3.org/2000/svg" xmlns:xlink="http://www.w3.org/1999/xlink">
    <!-- Generator: Sketch 51 (57462) - http://www.bohemiancoding.com/sketch -->
    <title>Group</title>
    <desc>Created with Sketch.</desc>
    <defs></defs>
    <g id="Page-1" stroke="none" stroke-width="1" fill="none" fill-rule="evenodd">
        <g id="Group" fill="#FFFFFF" fill-rule="nonzero">
            <path d="M18.5315,12.2113 L11.2315,12.2113 C11.2315,12.2113 9.0425,12.3503 9.0425,9.9773 C9.0425,7.6033 11.3465,7.7273 11.3465,7.7273 L38.5975,7.7143 L38.5975,32.2803 L46.2895,32.2803 L46.2895,7.7153 L56.4315,7.7153 L56.4315,0.4213 L10.3065,0.4213 C10.3065,0.4213 1.0375,1.0353 1.0375,10.1583 C1.0375,19.2813 10.3375,19.9023 10.3375,19.9023 L18.3235,19.9013 C18.3235,19.9013 20.3835,19.8153 20.4285,22.3713 C20.4725,24.9283 18.3445,24.9313 18.3445,24.9313 L0.7145,24.9313 L0.7145,32.2803 L17.7735,32.2803 C17.7735,32.2803 28.2915,32.7163 28.2915,22.2053 C28.2915,11.6943 18.5315,12.2113 18.5315,12.2113" id="Fill-116"></path>
            <path d="M64.3322459,15.8022 L64.3323,9.4602 C64.3323,9.4602 64.2943,7.7242 66.2323,7.7242 C68.1713,7.7242 74.4183,7.7312 74.4183,7.7312 C74.4183,7.7312 76.5973,7.5082 76.5973,9.3302 C76.5973,11.1532 76.6003,15.8022 76.6003,15.8022 L64.3322459,15.8022 Z M94.9243,7.7272 L112.3703,7.7272 L112.3703,0.4212 L93.4813,0.4212 C92.4943,0.4342 84.6463,0.8342 84.6463,10.2762 C84.6463,20.3502 93.6893,19.8232 93.6893,19.8232 L101.9943,19.8232 C101.9943,19.8232 104.0733,19.6492 104.0733,22.2982 C104.0733,24.9482 101.9783,24.9332 101.9783,24.9332 L84.2873,24.9332 L84.2873,9.6382 C84.1563,4.5102 79.9613,0.4212 74.8323,0.4212 L65.3783,0.4212 C60.5233,0.4212 56.5873,4.3572 56.5873,9.2122 C56.5873,9.3982 56.5933,9.5822 56.6043,9.7682 L56.6043,32.2812 L64.3323,32.2812 L64.3323,23.4972 L76.6533,23.4972 L76.6533,32.2812 L102.2833,32.2812 C102.2833,32.2812 112.3253,31.7582 112.3253,22.2902 C112.3253,12.8222 102.6163,12.2012 102.6163,12.2012 L94.9403,12.2122 C94.9403,12.2122 92.6803,12.2562 92.6803,9.9672 C92.6803,7.6782 94.9243,7.7272 94.9243,7.7272 Z" id="Fill-117"></path>
        </g>
    </g>
</svg>