<?xml version="1.0" encoding="UTF-8"?>
<svg width="113px" height="33px" viewBox="0 0 113 33" preserveAspectRatio="XMidYMid meet" version="1.1" xmlns="http://www.w3.org/2000/svg" xmlns:xlink="http://www.w3.org/1999/xlink">
    <!-- Generator: Sketch 51 (57462) - http://www.bohemiancoding.com/sketch -->
    <title>Group 119</title>
    <desc>Created with Sketch.</desc>
    <defs></defs>
    <g id="Page-1" stroke="none" stroke-width="1" fill="none" fill-rule="evenodd">
        <g id="CrucibleShop_brochure_2018" transform="translate(-421.000000, -706.000000)" fill="#121F48">
            <g id="Group-119" transform="translate(421.000000, 706.054000)">
                <path d="M18.5315,12.1573 L11.2315,12.1573 C11.2315,12.1573 9.0425,12.2963 9.0425,9.9233 C9.0425,7.5493 11.3465,7.6733 11.3465,7.6733 L38.5975,7.6603 L38.5975,32.2263 L46.2895,32.2263 L46.2895,7.6613 L56.4315,7.6613 L56.4315,0.3673 L10.3065,0.3673 C10.3065,0.3673 1.0375,0.9813 1.0375,10.1043 C1.0375,19.2273 10.3375,19.8483 10.3375,19.8483 L18.3235,19.8473 C18.3235,19.8473 20.3835,19.7613 20.4285,22.3173 C20.4725,24.8743 18.3445,24.8773 18.3445,24.8773 L0.7145,24.8773 L0.7145,32.2263 L17.7735,32.2263 C17.7735,32.2263 28.2915,32.6623 28.2915,22.1513 C28.2915,11.6403 18.5315,12.1573 18.5315,12.1573" id="Fill-116"></path>
                <path d="M64.3322459,15.7482 L64.3323,9.4062 C64.3323,9.4062 64.2943,7.6702 66.2323,7.6702 C68.1713,7.6702 74.4183,7.6772 74.4183,7.6772 C74.4183,7.6772 76.5973,7.4542 76.5973,9.2762 C76.5973,11.0992 76.6003,15.7482 76.6003,15.7482 L64.3322459,15.7482 Z M94.9243,7.6732 L112.3703,7.6732 L112.3703,0.3672 L93.4813,0.3672 C92.4943,0.3802 84.6463,0.7802 84.6463,10.2222 C84.6463,20.2962 93.6893,19.7692 93.6893,19.7692 L101.9943,19.7692 C101.9943,19.7692 104.0733,19.5952 104.0733,22.2442 C104.0733,24.8942 101.9783,24.8792 101.9783,24.8792 L84.2873,24.8792 L84.2873,9.5842 C84.1563,4.4562 79.9613,0.3672 74.8323,0.3672 L65.3783,0.3672 C60.5233,0.3672 56.5873,4.3032 56.5873,9.1582 C56.5873,9.3442 56.5933,9.5282 56.6043,9.7142 L56.6043,32.2272 L64.3323,32.2272 L64.3323,23.4432 L76.6533,23.4432 L76.6533,32.2272 L102.2833,32.2272 C102.2833,32.2272 112.3253,31.7042 112.3253,22.2362 C112.3253,12.7682 102.6163,12.1472 102.6163,12.1472 L94.9403,12.1582 C94.9403,12.1582 92.6803,12.2022 92.6803,9.9132 C92.6803,7.6242 94.9243,7.6732 94.9243,7.6732 Z" id="Fill-117"></path>
            </g>
        </g>
    </g>
</svg>